<svg width="31" height="32" viewBox="0 0 31 32" fill="none" xmlns="http://www.w3.org/2000/svg">
<path d="M3 10.6491C3 10.3253 3 10.1633 3.02583 10.0042C3.05165 9.84505 3.10286 9.69143 3.20527 9.3842L3.42164 8.73509C3.86165 7.41505 4.08166 6.75503 4.60543 6.37752C5.12921 6 5.82493 6 7.21637 6H8.78363C10.1751 6 10.8708 6 11.3946 6.37752C11.9183 6.75503 12.1384 7.41505 12.5784 8.73509L12.7947 9.3842C12.8971 9.69143 12.9484 9.84505 12.9742 10.0042C13 10.1633 13 10.3253 13 10.6491V22C13 23.8856 13 24.8284 12.4142 25.4142C11.8284 26 10.8856 26 9 26H7C5.11438 26 4.17157 26 3.58579 25.4142C3 24.8284 3 23.8856 3 22V10.6491Z" stroke="white"/>
<path d="M3 10H13" stroke="white" stroke-linecap="round"/>
<rect x="5" y="12" width="2" height="2" fill="white"/>
<rect x="9" y="12" width="2" height="2" fill="white"/>
<rect x="5" y="16" width="2" height="2" fill="white"/>
<rect x="9" y="16" width="2" height="2" fill="white"/>
<rect x="5" y="20" width="2" height="2" fill="white"/>
<rect x="9" y="20" width="2" height="2" fill="white"/>
<path d="M19 22V25.5" stroke="white" stroke-width="1.6" stroke-linecap="round" stroke-linejoin="round"/>
<path d="M14.2212 19.5141L13.8433 19.1866L13.8433 19.1866L14.2212 19.5141ZM17.7 15.5V15C17.555 15 17.4172 15.063 17.3222 15.1725L17.7 15.5ZM23.7789 19.5141L23.4011 19.8415L23.4011 19.8415L23.7789 19.5141ZM20.3 15.5L20.6779 15.1725C20.5829 15.063 20.445 15 20.3 15V15.5ZM14.599 19.8415L18.0779 15.8275L17.3222 15.1725L13.8433 19.1866L14.599 19.8415ZM15.128 21C14.5281 21 14.2061 20.2948 14.599 19.8415L13.8433 19.1866C12.8892 20.2875 13.6712 22 15.128 22V21ZM22.8721 21H15.128V22H22.8721V21ZM23.4011 19.8415C23.7939 20.2948 23.4719 21 22.8721 21V22C24.3288 22 25.1108 20.2875 24.1567 19.1866L23.4011 19.8415ZM19.9222 15.8275L23.4011 19.8415L24.1567 19.1866L20.6779 15.1725L19.9222 15.8275ZM20.3 15H17.7V16H20.3V15Z" fill="white"/>
<path d="M15.3433 13.4891L18.2628 10.3042C18.6592 9.8718 19.3408 9.8718 19.7372 10.3042L22.6567 13.4891C23.3622 14.2588 22.8162 15.5 21.7721 15.5H16.2279C15.1838 15.5 14.6378 14.2588 15.3433 13.4891Z" stroke="white" stroke-linecap="round" stroke-linejoin="round"/>
</svg>
