<svg width="115" height="116" viewBox="0 0 115 116" fill="none" xmlns="http://www.w3.org/2000/svg">
<path d="M57.2284 10.1721C30.8914 10.1721 9.56409 31.547 9.56409 57.8841C9.56409 84.2211 30.8914 105.596 57.2284 105.596C83.6132 105.596 104.988 84.2211 104.988 57.8841C104.988 31.547 83.6132 10.1721 57.2284 10.1721ZM57.2761 96.0537C36.1874 96.0537 19.1065 78.9728 19.1065 57.8841C19.1065 36.7954 36.1874 19.7145 57.2761 19.7145C78.3648 19.7145 95.4457 36.7954 95.4457 57.8841C95.4457 78.9728 78.3648 96.0537 57.2761 96.0537ZM56.2265 34.0281H55.9402C54.0317 34.0281 52.5049 35.5549 52.5049 37.4633V59.9834C52.5049 61.6533 53.3637 63.2278 54.8428 64.0867L74.6433 75.9669C76.2655 76.9212 78.3648 76.4441 79.3191 74.8219C80.321 73.1997 79.7962 71.0526 78.1263 70.0984L59.6617 59.1246V37.4633C59.6617 35.5549 58.1349 34.0281 56.2265 34.0281Z" fill="black"/>
</svg>
